<svg fill="none" viewBox="0 0 116 116" xmlns="http://www.w3.org/2000/svg"><path d="M64.34 0c5.17 0 10.12 1.34 13.78 3.72 3.65 2.38 5.7 5.6 5.7 8.97h21.3c6 0 10.87 4.87 10.87 10.87v19.49c-3.36 0-6.59 2.05-8.97 5.7s-3.71 8.61-3.71 13.78 1.33 10.12 3.71 13.78c2.38 3.65 5.61 5.7 8.98 5.7v6C104.26 78.61 88.32 70.38 69.92 65 42.98 57.1 17.17 57.2 0 63.8c.09-4.97 1.41-9.7 3.71-13.23 2.38-3.66 5.6-5.71 8.97-5.71v-21.3c0-6 4.87-10.87 10.88-10.87h21.3c0-3.37 2.05-6.6 5.7-8.98C54.22 1.34 59.17 0 64.34 0" fill="#4C008E"/><circle cx="48.94" cy="48.94" r="21.75" fill="url(#a)"/><path d="M0 63.8c17.17-6.6 43-6.7 69.93 1.2 18.4 5.38 34.34 13.62 46.07 23v17.12c0 6-4.87 10.87-10.88 10.87h-21.3c0-3.36-2.05-6.6-5.7-8.97s-8.6-3.72-13.78-3.72c-5.16 0-10.12 1.34-13.77 3.72s-5.71 5.6-5.71 8.97h-21.3c-6 0-10.87-4.87-10.87-10.87v-21.3c-3.37 0-6.6-2.05-8.97-5.7S0 69.5 0 64.33z" fill="#0A0037"/><defs><linearGradient id="a" x1="48.94" x2="48.94" y1="27.19" y2="70.69" gradientUnits="userSpaceOnUse"><stop stop-color="#FEF843" offset=".26"/><stop stop-color="#FF00C8" offset="1"/></linearGradient></defs></svg>